<svg width="205" height="56" viewBox="0 0 205 56" fill="none" xmlns="http://www.w3.org/2000/svg">
<path d="M53.9686 16.629V33.669H51.8086V25.917H42.4246V33.669H40.2646V16.629H42.4246V23.997H51.8086V16.629H53.9686ZM62.9787 33.909C62.0347 33.909 61.1787 33.741 60.4107 33.405C59.6427 33.053 58.9787 32.581 58.4187 31.989C57.8587 31.381 57.4267 30.685 57.1227 29.901C56.8187 29.117 56.6667 28.293 56.6667 27.429C56.6667 26.549 56.8187 25.717 57.1227 24.933C57.4267 24.149 57.8587 23.461 58.4187 22.869C58.9787 22.261 59.6427 21.789 60.4107 21.453C61.1947 21.101 62.0587 20.925 63.0027 20.925C63.9307 20.925 64.7787 21.101 65.5467 21.453C66.3147 21.789 66.9787 22.261 67.5387 22.869C68.1147 23.461 68.5547 24.149 68.8587 24.933C69.1627 25.717 69.3147 26.549 69.3147 27.429C69.3147 28.293 69.1627 29.117 68.8587 29.901C68.5547 30.685 68.1227 31.381 67.5627 31.989C67.0027 32.581 66.3307 33.053 65.5467 33.405C64.7787 33.741 63.9227 33.909 62.9787 33.909ZM58.8267 27.453C58.8267 28.317 59.0107 29.101 59.3787 29.805C59.7627 30.509 60.2667 31.069 60.8907 31.485C61.5147 31.885 62.2107 32.085 62.9787 32.085C63.7467 32.085 64.4427 31.877 65.0667 31.461C65.7067 31.045 66.2107 30.485 66.5787 29.781C66.9627 29.061 67.1547 28.269 67.1547 27.405C67.1547 26.541 66.9627 25.757 66.5787 25.053C66.2107 24.349 65.7067 23.789 65.0667 23.373C64.4427 22.957 63.7467 22.749 62.9787 22.749C62.2107 22.749 61.5147 22.965 60.8907 23.397C60.2667 23.813 59.7627 24.373 59.3787 25.077C59.0107 25.781 58.8267 26.573 58.8267 27.453ZM78.1664 33.045C77.9904 33.125 77.7504 33.229 77.4464 33.357C77.1424 33.485 76.7904 33.597 76.3904 33.693C75.9904 33.789 75.5664 33.837 75.1184 33.837C74.6064 33.837 74.1344 33.749 73.7024 33.573C73.2704 33.381 72.9264 33.093 72.6704 32.709C72.4144 32.309 72.2864 31.813 72.2864 31.221V22.797H70.5824V21.141H72.2864V16.965H74.3984V21.141H77.2064V22.797H74.3984V30.573C74.4304 31.021 74.5824 31.357 74.8544 31.581C75.1264 31.789 75.4464 31.893 75.8144 31.893C76.2304 31.893 76.6144 31.821 76.9664 31.677C77.3184 31.533 77.5504 31.429 77.6624 31.365L78.1664 33.045ZM85.5039 33.909C84.5599 33.909 83.6959 33.741 82.9119 33.405C82.1439 33.053 81.4719 32.581 80.8959 31.989C80.3359 31.381 79.8959 30.685 79.5759 29.901C79.2719 29.117 79.1199 28.285 79.1199 27.405C79.1199 26.221 79.3919 25.141 79.9359 24.165C80.4799 23.189 81.2319 22.405 82.1919 21.813C83.1679 21.221 84.2799 20.925 85.5279 20.925C86.7919 20.925 87.8879 21.229 88.8159 21.837C89.7599 22.429 90.4879 23.213 90.9999 24.189C91.5279 25.149 91.7919 26.189 91.7919 27.309C91.7919 27.469 91.7839 27.629 91.7679 27.789C91.7679 27.933 91.7599 28.045 91.7439 28.125H81.3519C81.4159 28.941 81.6399 29.669 82.0239 30.309C82.4239 30.933 82.9359 31.429 83.5599 31.797C84.1839 32.149 84.8559 32.325 85.5759 32.325C86.3439 32.325 87.0639 32.133 87.7359 31.749C88.4239 31.365 88.8959 30.861 89.1519 30.237L90.9759 30.741C90.7039 31.349 90.2959 31.893 89.7519 32.373C89.2239 32.853 88.5919 33.229 87.8559 33.501C87.1359 33.773 86.3519 33.909 85.5039 33.909ZM81.2799 26.661H89.8239C89.7599 25.845 89.5279 25.125 89.1279 24.501C88.7279 23.877 88.2159 23.389 87.5919 23.037C86.9679 22.685 86.2799 22.509 85.5279 22.509C84.7919 22.509 84.1119 22.685 83.4879 23.037C82.8639 23.389 82.3519 23.877 81.9519 24.501C81.5679 25.125 81.3439 25.845 81.2799 26.661ZM94.1875 16.149H96.2995V30.429C96.2995 31.117 96.3955 31.541 96.5875 31.701C96.7795 31.861 97.0115 31.941 97.2835 31.941C97.6195 31.941 97.9395 31.909 98.2435 31.845C98.5475 31.765 98.8035 31.685 99.0115 31.605L99.3475 33.333C98.9955 33.477 98.5795 33.597 98.0995 33.693C97.6195 33.789 97.1955 33.837 96.8275 33.837C96.0115 33.837 95.3635 33.605 94.8835 33.141C94.4195 32.677 94.1875 32.029 94.1875 31.197V16.149ZM118.086 33.669L109.734 24.861C109.046 24.125 108.494 23.501 108.078 22.989C107.678 22.461 107.39 21.989 107.214 21.573C107.038 21.141 106.95 20.701 106.95 20.253C106.95 19.517 107.142 18.861 107.526 18.285C107.91 17.709 108.43 17.253 109.086 16.917C109.758 16.581 110.51 16.413 111.342 16.413C112.11 16.413 112.806 16.557 113.43 16.845C114.054 17.117 114.55 17.517 114.918 18.045C115.302 18.557 115.494 19.173 115.494 19.893C115.494 20.629 115.294 21.285 114.894 21.861C114.494 22.421 113.966 22.949 113.31 23.445C112.67 23.925 111.958 24.413 111.174 24.909C110.534 25.325 109.95 25.749 109.422 26.181C108.91 26.613 108.502 27.077 108.198 27.573C107.91 28.053 107.766 28.589 107.766 29.181C107.766 29.821 107.942 30.373 108.294 30.837C108.646 31.285 109.102 31.629 109.662 31.869C110.238 32.109 110.838 32.229 111.462 32.229C112.278 32.229 113.038 32.045 113.742 31.677C114.446 31.293 115.062 30.765 115.59 30.093C116.134 29.421 116.55 28.645 116.838 27.765C117.142 26.869 117.294 25.909 117.294 24.885H119.046C119.046 26.197 118.838 27.405 118.422 28.509C118.022 29.597 117.462 30.549 116.742 31.365C116.038 32.165 115.214 32.789 114.27 33.237C113.326 33.685 112.318 33.909 111.246 33.909C110.206 33.909 109.262 33.701 108.414 33.285C107.582 32.869 106.926 32.309 106.446 31.605C105.966 30.885 105.726 30.069 105.726 29.157C105.726 28.277 105.926 27.509 106.326 26.853C106.742 26.181 107.27 25.589 107.91 25.077C108.566 24.549 109.238 24.069 109.926 23.637C110.63 23.189 111.254 22.781 111.798 22.413C112.342 22.029 112.766 21.637 113.07 21.237C113.39 20.837 113.55 20.405 113.55 19.941C113.55 19.381 113.342 18.925 112.926 18.573C112.51 18.205 111.982 18.021 111.342 18.021C110.862 18.021 110.438 18.125 110.07 18.333C109.702 18.525 109.414 18.789 109.206 19.125C108.998 19.445 108.894 19.805 108.894 20.205C108.894 20.461 108.958 20.725 109.086 20.997C109.214 21.269 109.454 21.613 109.806 22.029C110.174 22.445 110.686 23.005 111.342 23.709L120.87 33.669H118.086ZM129.093 33.669V16.629H131.253V31.749H140.757V33.669H129.093ZM142.652 28.653V21.141H144.764V28.245C144.764 29.525 144.988 30.485 145.436 31.125C145.884 31.765 146.548 32.085 147.428 32.085C148.004 32.085 148.556 31.965 149.084 31.725C149.628 31.469 150.116 31.109 150.548 30.645C150.98 30.181 151.316 29.629 151.556 28.989V21.141H153.668V31.269C153.668 31.525 153.716 31.717 153.812 31.845C153.924 31.957 154.1 32.021 154.34 32.037V33.669C154.1 33.701 153.908 33.717 153.764 33.717C153.636 33.733 153.508 33.741 153.38 33.741C152.98 33.741 152.636 33.621 152.348 33.381C152.06 33.125 151.908 32.813 151.892 32.445L151.844 30.981C151.3 31.909 150.564 32.629 149.636 33.141C148.724 33.653 147.724 33.909 146.636 33.909C145.324 33.909 144.332 33.469 143.66 32.589C142.988 31.693 142.652 30.381 142.652 28.653ZM158.122 21.141L161.434 25.749L161.626 26.133L161.842 25.749L165.13 21.141H167.482L162.85 27.429L167.506 33.669H165.154L161.842 29.085L161.626 28.725L161.434 29.085L158.122 33.669H155.77L160.426 27.429L155.794 21.141H158.122ZM169.371 28.653V21.141H171.483V28.245C171.483 29.525 171.707 30.485 172.155 31.125C172.603 31.765 173.267 32.085 174.147 32.085C174.723 32.085 175.275 31.965 175.803 31.725C176.347 31.469 176.835 31.109 177.267 30.645C177.699 30.181 178.035 29.629 178.275 28.989V21.141H180.387V31.269C180.387 31.525 180.435 31.717 180.531 31.845C180.643 31.957 180.819 32.021 181.059 32.037V33.669C180.819 33.701 180.627 33.717 180.483 33.717C180.355 33.733 180.227 33.741 180.099 33.741C179.699 33.741 179.355 33.621 179.067 33.381C178.779 33.125 178.627 32.813 178.611 32.445L178.563 30.981C178.019 31.909 177.283 32.629 176.355 33.141C175.443 33.653 174.443 33.909 173.355 33.909C172.043 33.909 171.051 33.469 170.379 32.589C169.707 31.693 169.371 30.381 169.371 28.653ZM190.529 22.989C189.473 23.005 188.537 23.277 187.721 23.805C186.921 24.317 186.353 25.029 186.017 25.941V33.669H183.905V21.141H185.873V24.045C186.305 23.181 186.873 22.485 187.577 21.957C188.297 21.413 189.049 21.109 189.833 21.045C189.993 21.045 190.129 21.045 190.241 21.045C190.353 21.045 190.449 21.053 190.529 21.069V22.989ZM193.2 37.077C193.408 37.093 193.616 37.109 193.824 37.125C194.032 37.157 194.192 37.173 194.304 37.173C194.56 37.173 194.784 37.085 194.976 36.909C195.168 36.733 195.376 36.389 195.6 35.877C195.84 35.381 196.144 34.645 196.512 33.669L191.208 21.141H193.44L197.664 31.533L201.48 21.141H203.568L197.472 36.957C197.328 37.325 197.112 37.669 196.824 37.989C196.552 38.325 196.2 38.589 195.768 38.781C195.336 38.973 194.816 39.069 194.208 39.069C194.064 39.069 193.912 39.061 193.752 39.045C193.608 39.029 193.424 38.997 193.2 38.949V37.077Z" fill="black"/>
<path d="M10.8103 12.687V12.963C10.8103 14.991 10.8103 17.02 10.8103 19.048C10.8153 19.1463 10.7985 19.2445 10.7612 19.3356C10.7238 19.4267 10.6668 19.5084 10.5943 19.575C8.35488 21.7787 6.74473 24.5405 5.93028 27.575C5.90828 27.653 5.89228 27.733 5.86628 27.842H16.3983V27.495C16.3983 21.8117 16.3959 16.1287 16.3913 10.446C16.3913 10.157 16.4703 10.038 16.7513 9.96298C18.2562 9.55026 19.7961 9.27809 21.3513 9.14998C21.4873 9.13998 21.6243 9.13498 21.7843 9.12698V44.087H16.4043V33.314H5.33628C5.40528 33.891 5.45328 34.452 5.54228 35.007C5.87895 37.1407 6.60466 39.1944 7.68328 41.066C8.49286 42.4681 9.48484 43.7567 10.6333 44.898C10.7282 44.9896 10.7877 45.1118 10.8013 45.243C10.8123 47.354 10.8093 49.464 10.8083 51.575C10.8048 51.629 10.7977 51.6828 10.7873 51.736C7.42217 49.6355 4.65925 46.6983 2.76828 43.2112C0.877307 39.724 -0.0770862 35.8061 -0.00171761 31.84C0.0439265 27.0798 1.58645 22.4546 4.40728 18.62C6.05728 16.344 9.60728 13.071 10.8073 12.687" fill="#6694CC"/>
<path d="M24.3496 9.09097C25.1326 9.18297 25.8896 9.23297 26.6326 9.36897C27.5926 9.54297 28.5386 9.78997 29.4926 9.99497C29.6926 10.038 29.7526 10.126 29.7506 10.328C29.7406 11.351 29.7506 12.374 29.7506 13.398C29.7506 23.512 29.7506 33.626 29.7506 43.74V44.085H24.3506L24.3496 9.09097Z" fill="#6694CC"/>
<path d="M41.4245 46.218C39.5265 48.7102 37.1432 50.7921 34.4185 52.338C31.3376 54.0908 27.8926 55.1063 24.3535 55.305V49.997C24.9885 49.902 25.6205 49.824 26.2465 49.712C29.0085 49.2139 31.6115 48.0629 33.8385 46.355C33.9427 46.2714 34.0694 46.2209 34.2025 46.21C36.5415 46.202 38.8805 46.204 41.2185 46.205C41.2625 46.205 41.3065 46.211 41.4245 46.219" fill="#F4610C"/>
<path d="M16.4138 48.707C18.1324 49.3974 19.9456 49.8236 21.7918 49.971V55.31C21.2768 55.263 20.7718 55.256 20.2838 55.165C19.0568 54.935 17.8368 54.665 16.6128 54.414C16.5794 54.4124 16.5467 54.4039 16.5169 54.3888C16.487 54.3737 16.4607 54.3525 16.4396 54.3265C16.4186 54.3005 16.4032 54.2704 16.3947 54.2381C16.3861 54.2058 16.3844 54.172 16.3898 54.139C16.3968 52.394 16.3898 50.649 16.3898 48.904C16.3898 48.852 16.3998 48.804 16.4088 48.704" fill="#F4610C"/>
<path d="M30.4455 1.26598L29.9005 6.81898H16.2465C16.0565 5.05698 15.8675 3.30098 15.6465 1.21898C17.0035 2.29998 19.4075 1.69998 18.8665 4.39998H21.5315C20.7725 2.61098 21.8315 1.59998 23.1695 0.599976C24.0245 1.69998 25.7325 2.38798 24.3985 4.38398H27.2265C26.7385 1.82498 29.0015 2.23598 30.4435 1.26598" fill="#F4610C"/>
</svg>
